<svg width="1000" height="1001" viewBox="0 0 1000 1001" fill="none" xmlns="http://www.w3.org/2000/svg">
<g clip-path="url(#clip0_4_5)">
<path d="M620.719 1451C1058.28 1451 1413 1096.31 1413 658.78C1413 221.251 1058.28 -125.331 620.719 -125.331C183.155 -125.331 -414 -327.572 -414 109.957C-414 547.484 183.155 1451 620.719 1451Z" fill="#050505"/>
<mask id="mask0_4_5" style="mask-type:luminance" maskUnits="userSpaceOnUse" x="-146" y="-210" width="1355" height="1355">
<path d="M531.497 1145C905.668 1145 1208.99 841.668 1208.99 467.497C1208.99 93.3253 905.668 -210 531.497 -210C157.326 -210 -146 93.3253 -146 467.497C-146 841.668 157.326 1145 531.497 1145Z" fill="white"/>
</mask>
<g mask="url(#mask0_4_5)">
<path d="M1489.33 -168.581C1505.01 -68.4096 1491.78 29.1161 1483.95 128.7C1478.37 198.908 1461.73 290.657 1506.37 354.99C1589.02 474.156 1794.45 543.873 1771.53 712.979C1758.21 811.093 1577.27 872.879 1635.63 983.233C1714.65 1132.85 1770.07 1279.05 1810.99 1441.97C1659.91 1407.12 1508.81 1372.95 1357.54 1338.78C1222.5 1308.32 1086.6 1270.04 949.804 1249.08C713.43 1213.05 474.02 1262.4 238.917 1209.13C-22.0351 1150.08 -247.247 995.766 -502.032 919.292C-782.175 835.181 -1078.28 785.731 -1363.61 720.91C-1270.98 617.704 -1194.12 503.042 -1102.37 399.836C-1020.22 307.401 -891.453 314.745 -795.198 246.789C-708.932 185.884 -767.586 106.57 -735.664 28.1378C-708.932 -37.4683 -607.783 -80.6498 -550.207 -120.796C-427.515 -206.377 -308.643 -293.328 -235.008 -421.503C-104.385 -417.195 86.3598 -448.92 196.225 -356.779C261.047 -302.435 299.92 -258.959 390.103 -239.18C559.697 -201.873 744.176 -236.242 912.889 -250.44C1006.01 -258.274 1100.01 -265.324 1193.91 -260.33C1306.53 -254.259 1391.02 -222.044 1489.33 -168.581Z" stroke="#F7F7F7" stroke-miterlimit="10"/>
<path d="M30.2536 -414.356C-49.8441 -285.593 -159.611 -189.926 -278.875 -92.9873C-341.935 -41.7757 -441.517 19.3251 -465.899 99.8145C-483.72 158.663 -458.164 221.527 -442.301 279.201C-431.041 320.229 -408.225 382.309 -439.07 419.615C-474.614 462.7 -576.743 443.311 -624.821 438.906C-689.839 432.932 -781.098 416.776 -834.66 458.979C-878.233 493.348 -891.256 565.122 -906.532 614.277C-927.683 682.526 -950.791 745.389 -990.447 805.806" stroke="#F7F7F7" stroke-miterlimit="10"/>
<path d="M64.623 -409.753C-10.676 -285.201 -112.903 -191.101 -227.076 -97.4915C-290.232 -45.6931 -396.572 14.1354 -413.904 97.855C-426.927 160.719 -405.189 228.088 -388.934 289.58C-377.38 333.251 -352.998 400.913 -384.43 440.864C-420.268 486.396 -521.614 464.462 -570.867 458.195C-635.787 449.969 -732.921 427.155 -788.442 467.987C-833.092 500.79 -842.884 575.306 -855.124 624.362C-872.358 693.884 -890.766 757.825 -928.073 819.906" stroke="#F7F7F7" stroke-miterlimit="10"/>
<path d="M94.0968 -404.172C28.2955 -290.978 -57.8727 -202.754 -158.924 -116.39C-222.963 -61.6535 -337.527 3.36457 -361.811 86.4975C-381.395 153.376 -355.153 225.737 -337.136 291.343C-324.015 338.93 -299.045 414.132 -333.806 457.705C-375.617 510.092 -483.818 481.108 -542.372 471.904C-602.004 462.602 -696.496 439.297 -747.414 480.423C-790.303 515.086 -796.079 597.141 -805.283 646.198C-817.817 712.783 -832.799 773.982 -865.797 833.908" stroke="#F7F7F7" stroke-miterlimit="10"/>
<path d="M119.359 -397.611C60.2165 -289.901 -15.9642 -203.929 -108.987 -120.698C-171.361 -64.8851 -282.596 -1.13932 -307.468 80.4259C-328.128 148.088 -306.488 225.444 -290.528 292.909C-278.288 344.512 -249.01 422.847 -283.673 470.924C-364.848 583.531 -593.878 406.886 -698.847 490.214C-742.127 524.584 -745.26 608.305 -752.017 657.263C-761.417 724.73 -772.482 786.711 -803.619 848.106" stroke="#F7F7F7" stroke-miterlimit="10"/>
<path d="M140.706 -390.169C87.7325 -286.572 20.9516 -201.579 -64.9227 -120.11C-120.638 -67.3324 -223.355 -7.89555 -247.345 64.2701C-270.649 134.478 -255.472 214.574 -242.253 286.153C-232.755 337.461 -201.617 431.17 -234.713 479.051C-315.3 595.477 -536.988 424.414 -642.837 496.677C-691.698 530.067 -692.09 613.102 -697.279 664.804C-704.134 734.423 -711.477 798.364 -741.44 862.305" stroke="#F7F7F7" stroke-miterlimit="10"/>
<path d="M158.918 -381.944C113.876 -285.397 59.6284 -202.558 -15.6704 -124.517C-67.5672 -70.6615 -161.275 -14.4563 -185.363 55.3584C-209.842 126.252 -199.855 207.23 -190.651 280.571C-183.992 333.349 -155.89 431.562 -187.126 480.226C-264.873 601.352 -487.441 436.163 -590.353 507.643C-638.921 541.328 -638.333 625.342 -641.76 676.749C-646.46 746.858 -650.67 811.289 -679.263 876.306" stroke="#F7F7F7" stroke-miterlimit="10"/>
<path d="M174.487 -373.132C139.923 -289.901 102.127 -211.762 43.9621 -141.065C-6.36782 -79.9642 -99.2918 -21.6054 -122.89 53.8908C-146.293 128.504 -141.103 209.874 -135.815 287.328C-131.997 343.141 -113.196 423.629 -141.69 475.233C-209.352 597.826 -427.122 455.943 -527.881 517.338C-580.169 549.259 -581.343 632.49 -583.988 685.366C-587.61 757.14 -588.492 823.332 -616.79 890.505" stroke="#F7F7F7" stroke-miterlimit="10"/>
<path d="M187.804 -363.732C160.191 -286.278 134.634 -208.922 87.0454 -140.086C42.0041 -74.8715 -35.1559 -23.4644 -58.5585 52.3232C-80.3942 123.021 -81.5694 198.81 -81.7652 272.445C-81.8631 327.376 -64.7273 418.93 -92.7319 468.281C-163.429 592.736 -376.499 462.308 -475.299 534.964C-521.516 568.941 -522.104 643.946 -524.552 695.061C-527.98 767.519 -526.804 836.748 -554.515 904.802" stroke="#F7F7F7" stroke-miterlimit="10"/>
<path d="M199.553 -353.842C178.991 -283.536 167.338 -209.02 133.263 -143.121C99.09 -77.1241 34.0719 -28.4588 10.1793 41.5524C-13.9083 112.054 -20.8605 187.354 -26.1481 261.281C-30.1627 318.074 -18.7063 406.299 -46.1234 457.412C-113.785 583.531 -319.708 471.316 -416.157 547.889C-461.787 584.118 -461.59 658.634 -463.844 711.021C-466.977 783.676 -464.822 853.981 -491.652 922.524" stroke="#F7F7F7" stroke-miterlimit="10"/>
<path d="M210.129 -343.658C195.637 -278.934 198.869 -209.118 178.697 -145.863C157.744 -80.0619 103.79 -33.0618 79.8002 30.5864C53.363 100.695 40.4377 175.309 29.7644 249.14C21.3431 307.597 26.7292 391.121 -0.492635 444.29C-65.5105 571.389 -263.012 478.562 -356.524 560.422C-401.175 599.589 -400.49 673.909 -402.643 727.96C-405.58 801.693 -402.839 873.662 -428.885 943.576" stroke="#F7F7F7" stroke-miterlimit="10"/>
<path d="M220.214 -333.181C210.521 -268.849 229.224 -208.041 223.349 -144.492C217.865 -84.4684 177.914 -40.6009 153.532 12.4702C121.611 81.8947 103.497 158.272 87.1431 232.298C73.142 295.65 70.5959 371.244 42.9825 430.485C-18.1184 561.302 -215.816 481.892 -301.984 577.851C-338.606 618.585 -338.018 690.555 -340.074 741.277C-343.207 818.437 -339.584 894.421 -365.337 968.055" stroke="#F7F7F7" stroke-miterlimit="10"/>
<path d="M230.203 -322.508C225.111 -255.042 256.837 -210.196 268.489 -146.353C278.967 -88.6789 247.535 -46.8678 223.74 2.77646C190.253 72.5925 165.871 146.913 143.644 220.744C124.549 284.39 115.541 356.359 87.7326 416.971C28.2957 546.616 -160.589 489.431 -240.588 591.07C-275.741 635.721 -275.153 706.615 -277.21 760.077C-280.245 839.587 -276.524 918.411 -301.591 994.592" stroke="#F7F7F7" stroke-miterlimit="10"/>
<path d="M240.778 -311.835C240.68 -239.473 282.491 -208.923 313.14 -147.626C340.165 -93.477 317.839 -55.289 293.36 -5.93743C227.558 127.035 192.7 270.583 131.794 404.437C73.9251 531.732 -104.874 498.341 -178.802 604.29C-212.486 652.465 -211.899 723.259 -213.955 779.27C-216.991 861.619 -213.27 943.479 -237.651 1022.69" stroke="#F7F7F7" stroke-miterlimit="10"/>
<path d="M252.431 -301.064C257.817 -225.177 310.105 -202.46 357.105 -148.017C399.21 -99.254 387.852 -65.0802 361.609 -13.1839C293.753 120.965 236.764 257.757 175.075 394.157C118.87 518.513 -49.4516 508.623 -117.015 617.704C-149.035 669.405 -148.447 740.297 -150.503 798.756C-153.539 884.139 -149.916 969.133 -173.612 1051.68" stroke="#F7F7F7" stroke-miterlimit="10"/>
<path d="M265.551 -290.587C276.127 -213.231 341.242 -192.57 400.385 -147.724C454.73 -106.402 456.296 -74.2846 427.9 -18.8626C358.28 117.244 280.142 247.475 217.278 386.911C162.639 508.134 5.48022 520.08 -55.6208 631.216C-85.8776 686.149 -85.1922 757.335 -87.2485 818.143C-90.186 906.563 -86.661 994.886 -109.574 1080.76" stroke="#F7F7F7" stroke-miterlimit="10"/>
<path d="M280.827 -280.207C304.915 -155.263 564.594 -165.153 491.645 -22.4859C420.655 116.558 322.442 240.914 258.501 383.778C205.723 501.671 60.2165 532.81 5.28372 644.926C-62.3773 782.893 -9.30551 962.377 -45.6332 1109.16" stroke="#F7F7F7" stroke-miterlimit="10"/>
<path d="M298.746 -270.219C316.763 -191.101 409.687 -175.63 479.993 -146.255C551.473 -116.488 587.702 -84.9579 548.536 -16.5132C471.082 118.713 357.595 239.739 298.648 384.267C251.745 499.321 122.885 543.384 69.6162 651.584C-1.0806 795.328 53.3631 982.744 18.2091 1136.28" stroke="#F7F7F7" stroke-miterlimit="10"/>
<path d="M319.897 -260.624C319.701 -121.677 701.974 -184.247 605.622 -15.1421C525.526 125.371 402.639 244.146 337.424 392.492C312.357 449.579 282.688 491.291 236.568 535.747C195.051 575.698 151.771 612.711 128.369 665.39C61.9794 814.911 114.855 1003.01 81.7596 1161.06" stroke="#F7F7F7" stroke-miterlimit="10"/>
<path d="M344.768 -251.516C343.103 -110.318 756.22 -186.597 658.401 -10.7355C577.128 135.555 439.847 253.35 375.024 408.062C352.013 462.896 324.89 505.001 283.471 549.651C245.87 590.19 206.605 628.377 185.846 679.785C123.668 833.32 175.467 1022.11 144.916 1183.28" stroke="#F7F7F7" stroke-miterlimit="10"/>
<path d="M373.849 -243.096C367.093 -97.8827 804.984 -189.436 706.282 -2.90223C624.814 150.928 474.999 269.311 411.254 432.051C372.479 531.047 278.673 596.359 241.66 694.473C216.298 761.84 220.705 839.293 220.313 910.383C219.824 1007.81 223.643 1105.63 207.584 1201.69" stroke="#F7F7F7" stroke-miterlimit="10"/>
<path d="M407.533 -235.654C399.014 -156.83 583.492 -139.792 638.62 -124.909C711.961 -105.031 782.757 -86.6226 755.437 -7.79802C694.336 169.14 519.552 294.672 459.234 473.764C428.194 565.808 337.522 612.612 298.549 698.78C267.803 766.736 275.636 850.847 277.105 923.797C278.966 1021.52 286.016 1119.24 269.958 1215.6" stroke="#F7F7F7" stroke-miterlimit="10"/>
<path d="M444.154 -230.171C442.391 -151.934 616.98 -133.036 674.556 -115.9C749.953 -93.3787 815.951 -73.7955 791.862 6.30229C765.131 95.2116 700.015 179.422 651.643 258.637C601.118 341.476 553.138 423.532 523.175 515.379C492.82 608.5 385.109 635.33 341.634 718.463C308.342 782.011 321.267 868.67 326.457 937.8C333.702 1034.35 347.803 1130.01 331.744 1225.58" stroke="#F7F7F7" stroke-miterlimit="10"/>
<path d="M483.126 -226.841C486.456 -149.388 650.078 -127.356 709.513 -107.185C785.988 -81.2366 845.522 -59.4002 824.567 20.9902C801.165 110.585 744.177 196.558 701.68 278.809C656.932 365.369 620.898 451.439 590.836 543.385C558.818 641.108 428.293 654.424 377.179 737.85C340.558 797.678 359.651 886.001 369.639 951.802C383.838 1045.8 406.751 1137.65 393.238 1231.86" stroke="#F7F7F7" stroke-miterlimit="10"/>
<path d="M524.153 -225.275C531.204 -148.605 683.075 -122.558 743.589 -98.6664C819.769 -68.5071 871.862 -43.6361 853.942 36.1676C833.967 124.685 786.477 210.559 751.031 293.986C713.92 381.134 691.202 470.435 661.239 559.247C626.086 663.628 466.676 670.874 406.26 756.748C365.819 814.325 391.769 902.059 407.533 965.608C429.957 1055.89 463.151 1142.55 454.142 1235.17" stroke="#F7F7F7" stroke-miterlimit="10"/>
<path d="M567.041 -225.177C599.453 -146.255 702.071 -125.3 776.88 -90.1474C851.299 -55.1901 895.362 -26.5009 880.479 51.9316C864.125 137.905 827.015 221.918 799.793 305.051C771.984 389.848 762.388 481.695 733.992 565.025C695.609 677.63 500.946 685.757 430.347 775.451C385.501 832.439 418.598 917.236 441.511 979.414C473.138 1064.9 517.691 1145.19 514.754 1236.35" stroke="#F7F7F7" stroke-miterlimit="10"/>
<path d="M611.497 -226.548C667.212 -90.9308 930.906 -103.856 904.664 67.9911C892.13 150.242 865.888 231.123 847.97 312.395C838.471 355.675 829.757 399.15 822.805 442.822C817.223 477.974 819.279 528.598 808.214 562.282C790.884 614.865 714.898 644.044 667.506 668.817C598.767 704.949 502.514 737.164 450.519 793.86C399.014 850.064 441.805 933.589 472.648 993.319C513.97 1073.22 570.762 1146.37 575.169 1236.26" stroke="#F7F7F7" stroke-miterlimit="10"/>
<path d="M657.323 -228.898C712.549 -90.4413 946.182 -87.7974 926.893 84.3431C918.177 162.09 903.098 238.859 895.558 316.802C891.641 357.437 888.9 398.172 887.039 438.906C885.571 470.338 892.229 522.723 883.319 552.785C866.575 609.088 769.146 644.534 720.089 669.797C637.445 712.391 535.708 749.209 468.341 811.974C408.415 867.787 463.445 951.018 502.319 1007.22C553.334 1081.05 622.856 1146.65 635.585 1235.57" stroke="#F7F7F7" stroke-miterlimit="10"/>
<path d="M704.324 -232.227C733.21 -155.655 811.348 -118.054 873.135 -65.2768C933.551 -13.5756 952.644 27.9414 947.749 100.793C942.853 173.644 939.132 245.517 942.754 318.76C946.083 385.148 974.579 474.352 958.617 538.292C943.636 598.414 822.119 642.282 771.887 668.133C677.299 716.797 563.028 759.098 484.888 829.697C418.794 889.428 482.636 966.489 531.497 1021.03C591.914 1088.59 674.262 1146.65 696 1234.78" stroke="#F7F7F7" stroke-miterlimit="10"/>
<path d="M752.108 -236.046C777.958 -161.138 846.403 -117.858 900.748 -60.5763C959.303 1.11249 968.116 48.3097 967.038 126.84C966.158 193.033 975.558 258.442 990.442 323.46C1002.68 377.02 1042.44 462.896 1031.08 517.142C1016.19 587.84 891.249 629.651 830.737 661.083C719.99 718.56 579.576 767.226 492.625 855.156C429.662 918.803 513.579 993.123 566.455 1039.24C634.313 1098.48 727.334 1149.5 756.514 1234.99" stroke="#F7F7F7" stroke-miterlimit="10"/>
<path d="M800.577 -240.354C823.979 -165.447 885.473 -115.508 932.18 -52.5465C982.118 14.7236 981.53 65.8367 986.818 142.995C991.126 205.272 1011.59 264.316 1037.34 322.089C1058.2 368.796 1112.25 446.642 1103.83 498.635C1091.69 573.836 944.419 624.168 882.045 656.969C760.038 721.204 605.817 775.94 509.76 873.173C442 941.813 539.135 1010.45 599.061 1052.85C674.752 1106.42 780.308 1150.96 817.126 1236.75" stroke="#F7F7F7" stroke-miterlimit="10"/>
<path d="M849.536 -244.858C870.393 -169.461 925.032 -112.473 963.612 -44.3217C1004.05 27.1583 994.455 83.9516 1006.69 159.055C1016.39 218.492 1048.21 270.584 1083.95 320.229C1113.13 360.668 1180.79 428.036 1175.02 480.226C1171.69 510.875 1140.35 530.264 1115.38 547.987C1058.69 588.329 994.749 620.25 932.963 653.347C801.066 723.946 633.235 784.459 529.931 890.799C458.157 964.629 569.784 1028.08 634.997 1066.46C717.641 1115.03 835.632 1153.81 878.324 1240.76" stroke="#F7F7F7" stroke-miterlimit="10"/>
<path d="M898.496 -249.167C916.904 -172.693 964.59 -108.556 994.847 -35.9006C1009.34 -0.944493 1020.8 36.4615 1023.73 73.6696C1026.48 108.137 1017.56 140.548 1026.77 174.918C1042.24 232.592 1086.01 277.144 1129.98 318.466C1166.5 352.835 1247.08 409.237 1243.75 463.581C1241.8 495.698 1205.08 517.926 1179.42 536.334C1118.42 580.202 1049.78 615.158 983.293 651.388C902.608 695.256 820.455 737.067 740.749 782.599C680.529 816.968 601.705 857.507 554.018 908.032C479.601 986.857 606.6 1046 674.85 1080.17C763.173 1124.43 893.502 1158.51 939.621 1247.8" stroke="#F7F7F7" stroke-miterlimit="10"/>
<path d="M947.455 -253.28C963.121 -176.61 1002.19 -107.186 1024.61 -32.1797C1035.68 4.93092 1043.51 43.7068 1044.79 81.8946C1045.96 116.166 1035.09 149.361 1045.08 183.142C1063.19 244.341 1126.55 285.076 1179.23 319.837C1221.92 347.94 1312.69 393.961 1314.16 450.655C1315.04 486.982 1240.04 529.381 1217.61 544.167C1148.58 589.601 1075.04 629.258 1001.99 669.014C918.471 714.545 833.576 758.314 752.205 807.078C692.476 842.916 616.393 879.244 574.875 934.078C519.649 1007.03 643.027 1057.65 700.504 1084.58C795.094 1128.84 954.211 1160.57 1001.6 1258.39" stroke="#F7F7F7" stroke-miterlimit="10"/>
<path d="M996.023 -256.804C1009.54 -177.686 1041.46 -102.387 1056.44 -23.4644C1063.98 16.1922 1068.19 56.9261 1067.21 96.9743C1066.33 130.855 1053.79 165.713 1066.62 198.908C1090.12 259.715 1168.36 292.126 1224.96 319.935C1268.93 341.478 1378.69 383.581 1376.24 442.333C1374.57 482.577 1302.71 523.997 1275.97 541.916C1203.9 590.287 1126.94 632.392 1050.47 674.595C963.709 722.478 875.387 768.596 790.884 819.906C731.447 855.94 650.86 893.639 612.084 950.236C560.188 1026.02 694.434 1074.49 751.325 1098.68C851.887 1141.47 1012.18 1170.16 1063.78 1272.29" stroke="#F7F7F7" stroke-miterlimit="10"/>
<path d="M1044.1 -259.546C1055.36 -179.155 1079.35 -100.527 1087.97 -19.7449C1092.37 21.577 1093.65 63.094 1091.2 104.318C1089.34 135.945 1074.46 176.092 1086.79 207.818C1133.11 326.789 1429.51 308.772 1429.6 440.667C1429.6 486.298 1368.21 519.394 1333.45 543.581C1262.07 593.225 1185.69 636.016 1109.31 678.805C1022.46 727.373 934.922 775.06 849.537 825.684C790.59 860.64 705.596 898.142 668.388 955.621C643.81 993.711 643.027 1009.08 679.845 1042.87C717.641 1077.53 773.16 1094.57 820.553 1113.56C922.29 1154.59 1072.5 1185.73 1125.96 1286.39" stroke="#F7F7F7" stroke-miterlimit="10"/>
<path d="M1091.3 -261.309C1100.89 -177.686 1117.93 -94.7496 1120.67 -10.6379C1122.04 32.5444 1120.57 75.7267 1116.46 118.516C1113.52 149.459 1097.76 191.564 1111.86 222.702C1165.91 341.77 1485.22 301.331 1482.58 447.62C1481.7 495.503 1422.85 528.892 1386.32 554.841C1314.06 606.248 1236.22 650.311 1158.57 694.473C1072.59 743.334 985.937 791.314 901.433 842.231C846.012 875.621 764.837 911.85 730.565 966.587C706.183 1005.46 710.395 1018.68 748.68 1050.31C788.827 1083.5 842.78 1101.23 890.858 1121.2C993.575 1163.89 1135.36 1198.36 1188.14 1300.49" stroke="#F7F7F7" stroke-miterlimit="10"/>
<path d="M1137.42 -261.798C1146.13 -168.874 1156.61 -77.1244 1152.89 16.0934C1150.54 72.495 1113.62 190.487 1144.66 242.089C1209.18 349.701 1543.58 307.009 1531.93 466.029C1528.69 510.68 1470.93 549.945 1439.19 573.445C1371.05 623.971 1293.79 666.762 1219.56 709.258C1138.49 755.671 1055.95 800.126 975.851 848.008C919.841 881.496 851.593 916.551 807.92 965.217C741.336 1039.44 889.291 1091.04 947.846 1117.19C1054.28 1164.88 1199.59 1205.41 1250.51 1314.59" stroke="#F7F7F7" stroke-miterlimit="10"/>
<path d="M1182.26 -260.819C1189.7 -164.272 1193.52 -69.389 1185.4 26.8657C1180.6 83.4625 1141.92 202.531 1175.9 255.211C1216.04 317.585 1347.45 330.216 1413.84 350.681C1477.19 370.167 1585.98 413.838 1576.88 493.74C1572.08 536.236 1510.87 577.068 1480.82 599.003C1414.91 647.08 1341.19 688.009 1269.9 728.743C1193.82 772.22 1116.46 814.031 1041.46 859.269C990.636 889.82 926.891 922.329 888.312 967.664C829.757 1036.4 979.376 1093.49 1031.47 1119.24C1136.24 1171.14 1268.14 1217.55 1312.79 1328.59" stroke="#F7F7F7" stroke-miterlimit="10"/>
<path d="M1225.54 -258.175C1232.1 -160.355 1230.24 -64.9828 1219.28 31.9562C1212.52 92.0787 1168.75 217.023 1213.79 273.228C1293.79 372.908 1633.18 343.142 1612.12 520.471C1606.64 566.493 1557.68 595.868 1521.06 622.208C1448.9 674.007 1370.85 718.071 1293.21 762.428C1225.63 801.008 1156.8 838.217 1091.39 879.929C1053.79 903.919 988.189 933.98 969.682 974.03C939.326 1039.93 1076.22 1095.94 1125.76 1123.75C1225.35 1179.66 1338.83 1232.83 1375.06 1342.69" stroke="#F7F7F7" stroke-miterlimit="10"/>
<path d="M1784.56 1332.5C1618.39 1273.96 1443.8 1254.27 1269.9 1233.51C1135.26 1217.36 1004.35 1190.53 870.785 1168.89C664.962 1135.6 453.458 1136.67 249.493 1090.65C-5.68214 1033.17 -237.455 901.471 -486.755 825.879C-749.078 746.272 -1026.48 703.286 -1293.9 642.968" stroke="#F7F7F7" stroke-miterlimit="10"/>
<path d="M1748.62 1220.09C1409.83 1115.13 1050.37 1191.22 710.297 1095.64C554.607 1051.87 407.435 987.738 249.493 949.942C-1.96146 889.722 -242.057 793.958 -491.259 726.491C-734.391 660.69 -985.16 621.033 -1231.52 568.157" stroke="#F7F7F7" stroke-miterlimit="10"/>
<path d="M1701.24 1110.63C1472.69 1057.95 1239.94 1072.05 1008.65 1076.26C865.105 1078.9 708.24 1088.3 575.463 1021.81C521.51 994.788 484.202 954.152 440.336 915.572C386.383 868.081 321.953 838.804 251.255 820.494C9.69021 757.825 -233.245 695.941 -475.887 637.484C-707.561 581.671 -942.37 542.992 -1176 496.383" stroke="#F7F7F7" stroke-miterlimit="10"/>
<path d="M1657.57 1005.85C1405.41 964.531 1155.14 993.906 903.294 1004.29C784.029 1009.28 634.605 1020.15 528.658 951.018C478.818 918.509 461.877 870.236 430.348 824.801C390.495 767.421 329.394 742.746 261.145 725.61C-197.113 610.948 -659.68 516.162 -1123.52 428.624" stroke="#F7F7F7" stroke-miterlimit="10"/>
<path d="M1622.21 952.683C1408.94 927.126 1196.27 936.526 982.607 926.538C858.447 920.761 747.505 903.528 634.311 851.533C514.264 796.307 411.058 713.077 288.366 661.865C75.9806 573.15 -171.067 562.968 -395.594 523.115C-623.058 482.772 -846.802 422.357 -1071.23 368.306" stroke="#F7F7F7" stroke-miterlimit="10"/>
<path d="M1637.58 895.695C1478.46 869.061 1317.39 855.156 1158.76 825.096C1045.57 803.651 939.719 756.846 826.134 739.123C747.212 726.785 667.212 725.708 588.682 710.628C493.603 692.513 413.996 651.879 329.198 608.599C142.761 513.421 -83.0381 535.551 -284.945 520.765C-535.91 502.454 -770.23 407.18 -1006.51 328.062" stroke="#F7F7F7" stroke-miterlimit="10"/>
<path d="M1685.37 835.866C1573.05 798.951 1461.52 759.881 1352.64 714.448C1240.62 667.74 1149.85 627.398 1025.69 631.902C914.85 635.917 806.061 658.438 694.63 656.48C574.582 654.423 474.413 618.976 371.696 560.128C197.009 460.056 -2.15646 512.246 -190.454 520.667C-455.813 532.417 -696.888 401.891 -935.123 301.917" stroke="#F7F7F7" stroke-miterlimit="10"/>
<path d="M1739.61 777.409C1662.65 725.121 1593.91 662.943 1516.94 610.556C1407.28 536.041 1310.63 521.451 1179.62 540.74C911.91 580.104 657.421 675.966 407.336 511.757C241.855 403.068 64.7205 479.346 -111.141 507.253C-381.592 550.239 -629.228 392.885 -864.525 279.984" stroke="#F7F7F7" stroke-miterlimit="10"/>
<path d="M1770.95 725.807C1716.7 654.228 1671.26 580.985 1597.93 523.703C1487.87 437.632 1373.21 445.465 1243.26 474.548C968.213 536.04 677.788 656.774 426.333 457.315C271.818 334.72 98.6009 431.953 -66.0984 470.827C-330.087 533.201 -577.036 368.796 -803.717 252.665" stroke="#F7F7F7" stroke-miterlimit="10"/>
<path d="M1765.27 648.353C1708.96 574.424 1656.18 501.867 1577.36 446.445C1473.57 373.496 1351.47 391.806 1234.94 415.307C976.635 467.4 695.217 571.29 455.024 397.485C291.793 279.396 114.855 369.579 -57.7749 409.53C-316.377 469.26 -542.275 339.322 -765.235 220.156" stroke="#F7F7F7" stroke-miterlimit="10"/>
<path d="M1733.65 577.361C1664.61 508.133 1595.67 438.122 1507.65 389.554C1412.96 337.266 1292.72 352.247 1191.27 367.032C954.016 401.696 724.005 455.844 504.473 319.837C330.961 212.322 125.235 298.001 -53.8579 336.874C-155.987 359.102 -253.905 370.362 -358.971 349.309C-497.82 321.501 -624.331 252.567 -746.043 185.1" stroke="#F7F7F7" stroke-miterlimit="10"/>
<path d="M1684.39 518.122C1604.19 459.762 1523.01 398.759 1430.48 358.514C1340.01 319.151 1238.28 319.445 1141.92 323.753C1046.16 328.062 950.589 337.756 854.334 329.433C747.995 320.326 657.812 286.153 565.083 236.41C378.941 136.533 136.592 222.996 -51.9001 261.183C-160.59 283.216 -270.846 301.917 -383.452 286.642C-512.312 269.213 -628.64 210.854 -739.385 147.892" stroke="#F7F7F7" stroke-miterlimit="10"/>
<path d="M1626.71 466.91C1455.06 375.063 1292.12 303.386 1096.09 281.649C1018.35 273.032 940.307 266.765 863.833 248.65C777.958 228.283 705.401 190.487 626.381 154.551C424.767 62.7026 153.435 149.556 -47.9828 187.157C-159.512 207.916 -273.587 230.437 -388.934 225.248C-517.404 219.372 -630.107 173.057 -739.874 110.488" stroke="#F7F7F7" stroke-miterlimit="10"/>
<path d="M1569.44 419.909C1401.99 352.345 1230.63 296.531 1059.47 238.662C927.969 194.305 808.705 129.483 680.529 79.251C579.575 39.6919 456.982 49.288 352.502 59.1781C220.411 71.8093 90.3747 95.7995 -39.6603 118.321C-283.77 160.621 -512.117 201.061 -741.245 73.9638" stroke="#F7F7F7" stroke-miterlimit="10"/>
<path d="M1520.97 373.496C1353.82 320.032 1179.13 286.544 1030.78 191.27C932.474 128.015 836.22 50.6593 721.95 13.8414C621.779 -18.4711 502.025 -7.89676 400.091 0.329411C260.949 11.5894 123.472 33.8168 -13.7115 55.849C-253.318 94.3308 -508.885 159.838 -738.797 40.1812" stroke="#F7F7F7" stroke-miterlimit="10"/>
<path d="M1488.84 324.341C1326.4 280.181 1144.47 262.36 1019.82 143.683C936.096 63.8788 865.399 -7.89532 744.861 -36.4884C637.446 -61.946 520.237 -52.8405 412.428 -44.3216C275.636 -33.4519 140.118 -14.0646 4.89214 5.91072C-230.307 40.6717 -498.212 117.733 -727.634 10.3172" stroke="#F7F7F7" stroke-miterlimit="10"/>
<path d="M1480.13 278.809C1317.98 233.571 1157.29 206.545 1026.67 97.9541C939.131 25.2004 858.152 -45.7904 740.846 -71.8361C636.368 -95.0431 521.412 -86.5243 416.443 -78.9845C286.408 -69.6817 157.45 -52.7429 28.7848 -34.9207C-202.401 -2.99973 -461.004 69.754 -689.154 -22.681" stroke="#F7F7F7" stroke-miterlimit="10"/>
<path d="M1478.37 229.557C1317.39 180.107 1166.3 136.925 1022.66 49.4845C924.836 -10.0498 824.469 -72.6194 709.806 -97.6869C511.033 -140.967 283.47 -101.799 86.9479 -78.397C-147.567 -50.4896 -404.504 19.3251 -637.55 -60.2822" stroke="#F7F7F7" stroke-miterlimit="10"/>
<path d="M1480.22 176.681C1321.89 122.139 1166.2 66.4247 1011.4 2.97303C898.789 -43.1469 781.58 -92.0074 661.827 -117.075C477.741 -155.557 275.441 -131.371 92.1377 -113.941C-128.374 -92.9867 -359.853 -38.544 -579.582 -100.526" stroke="#F7F7F7" stroke-miterlimit="10"/>
<path d="M1484.34 122.042C1199.4 11.8835 906.329 -73.404 605.916 -132.938C448.366 -164.174 282.883 -159.67 124.648 -150.955C-87.9334 -139.401 -306.781 -94.2603 -518.285 -143.024" stroke="#F7F7F7" stroke-miterlimit="10"/>
<path d="M1489.33 67.0112C1317.49 -6.72078 1153.67 -56.758 968.115 -83.0976C827.406 -103.073 687.187 -119.719 547.556 -146.647C418.206 -171.616 288.366 -184.639 157.058 -185.814C-47.0043 -187.576 -254.493 -149.976 -457.086 -187.479" stroke="#F7F7F7" stroke-miterlimit="10"/>
<path d="M1493.94 13.0582C1400.13 -30.9073 1310.33 -71.2495 1207.72 -91.4204C1124.59 -107.773 1040.18 -115.019 955.974 -120.208C802.046 -129.706 646.454 -130.196 494.19 -160.355C378.941 -183.17 265.943 -210.881 148.539 -220.477C-34.1768 -235.36 -216.795 -206.67 -398.433 -233.206" stroke="#F7F7F7" stroke-miterlimit="10"/>
</g>
<g filter="url(#filter0_f_4_5)">
<path d="M499.543 173V570.564L311 499.502L499.543 173Z" fill="#EB47F4"/>
<path d="M688 499.502L499.543 570.564V173L688 499.502Z" fill="url(#paint0_linear_4_5)"/>
<path d="M499.543 826.004V428.44L688 499.502L499.543 826.004Z" fill="#1A25E5"/>
<path d="M311 499.502L499.543 428.44V826.004L311 499.502Z" fill="url(#paint1_linear_4_5)"/>
</g>
<path d="M499.771 202V564.118L328 499.457L499.771 202Z" fill="#EB47F4"/>
<path d="M671.463 499.457L499.771 564.118V202L671.463 499.457Z" fill="url(#paint2_linear_4_5)"/>
<path d="M499.771 796.836V434.717L671.463 499.378L499.771 796.836Z" fill="#1A25E5"/>
<path d="M328 499.378L499.771 434.717V796.836L328 499.378Z" fill="url(#paint3_linear_4_5)"/>
</g>
<defs>
<filter id="filter0_f_4_5" x="181" y="43" width="637" height="913.004" filterUnits="userSpaceOnUse" color-interpolation-filters="sRGB">
<feFlood flood-opacity="0" result="BackgroundImageFix"/>
<feBlend mode="normal" in="SourceGraphic" in2="BackgroundImageFix" result="shape"/>
<feGaussianBlur stdDeviation="65" result="effect1_foregroundBlur_4_5"/>
</filter>
<linearGradient id="paint0_linear_4_5" x1="427.102" y1="62.429" x2="664.477" y2="735.639" gradientUnits="userSpaceOnUse">
<stop offset="0.00130208" stop-color="#2100FF"/>
<stop offset="0.9987" stop-color="#DA00FF"/>
</linearGradient>
<linearGradient id="paint1_linear_4_5" x1="533.102" y1="723.127" x2="389.121" y2="431.273" gradientUnits="userSpaceOnUse">
<stop offset="0.00130208" stop-color="#2100FF"/>
<stop offset="0.9987" stop-color="#DA00FF"/>
</linearGradient>
<linearGradient id="paint2_linear_4_5" x1="433.776" y1="101.197" x2="650.035" y2="714.52" gradientUnits="userSpaceOnUse">
<stop offset="0.00130208" stop-color="#2100FF"/>
<stop offset="0.9987" stop-color="#DA00FF"/>
</linearGradient>
<linearGradient id="paint3_linear_4_5" x1="530.347" y1="703.122" x2="399.174" y2="437.23" gradientUnits="userSpaceOnUse">
<stop offset="0.00130208" stop-color="#2100FF"/>
<stop offset="0.9987" stop-color="#DA00FF"/>
</linearGradient>
<clipPath id="clip0_4_5">
<rect width="1000" height="1001" fill="white"/>
</clipPath>
</defs>
</svg>
